<svg id="Layer_1" data-name="Layer 1" xmlns="http://www.w3.org/2000/svg" viewBox="0 0 985.96 220.69"><defs><style>.cls-1{fill:#209cee;}.cls-2{fill:#fff;}.cls-3{fill:#f2f2f2;}</style></defs><path class="cls-1" d="M65,236.78H33.1q-15.92,0-15.92-15.67V134.59H3.64V110.13H17.18V75.78H45.77v34.35H64.2v24.46H45.77v77.74H65Z" transform="translate(-3.64 -62.36)"/><path class="cls-2" d="M162.76,221.11q0,15.67-16.18,15.67H97.05q-16.17,0-16.17-15.67v-95.3q0-15.68,16.17-15.68h49.53q16.18,0,16.18,15.68v46.52l-7.9,7.9H108.34v35.48h27V194.65h27.46ZM135.3,161.54V131.2h-27v30.34Z" transform="translate(-3.64 -62.36)"/><path class="cls-2" d="M212.79,92H184.08V62.36h28.71Zm-.25,144.83H184.33V110.13h28.21Z" transform="translate(-3.64 -62.36)"/><path class="cls-2" d="M318.37,236.78H289.53V134.08l-27,.51V236.78H233.86V110.13h28.71v4.64q10-1.62,19.94-3.13a130,130,0,0,1,20.19-2q15.66,0,15.67,15.43Z" transform="translate(-3.64 -62.36)"/><path class="cls-2" d="M420.82,221.11q0,15.67-16.18,15.67H355.11q-16.17,0-16.18-15.67v-95.3q0-15.68,16.18-15.68h49.53q16.17,0,16.18,15.68v46.52l-7.9,7.9H366.4v35.48h27V194.65h27.47Zm-27.47-59.57V131.2h-27v30.34Z" transform="translate(-3.64 -62.36)"/><path class="cls-2" d="M523.26,236.78H495.8v-4.39l-19.56,3a144.25,144.25,0,0,1-19.44,1.88q-15.68,0-15.67-15.42V176.22q0-15.67,16.17-15.68h38.75V131.45H468.59v18.06h-26v-23.7q0-15.68,16.18-15.68h48.53q15.92,0,15.92,15.68ZM496.05,214V180H468.59v35Z" transform="translate(-3.64 -62.36)"/><path class="cls-2" d="M627.84,267.38q0,15.66-16.18,15.67h-49.9q-16.18,0-16.18-15.67V247.06h27.71v15.17h26V236H569.78q-12,0-19.12-6.77t-7.09-18.69V133.08q0-10.91,6.15-17.18t16.93-6.27q5.39,0,32.6,5.14v-4.64h28.59ZM599.25,213V135.09q-14.43-1.51-17.93-1.51-9.29,0-9.28,9.16v60.69q0,9.52,9.53,9.53Z" transform="translate(-3.64 -62.36)"/><path class="cls-2" d="M733.17,236.78H704.33V134.08l-27,.51V236.78H648.65V110.13h28.72v4.64q10-1.62,19.93-3.13a130.19,130.19,0,0,1,20.19-2q15.68,0,15.68,15.43Z" transform="translate(-3.64 -62.36)"/><path class="cls-1" d="M781.19,236.78H753V206.44h28.21Z" transform="translate(-3.64 -62.36)"/><path class="cls-3" d="M885.52,236.78H856.68V134.08l-27,.51V236.78H801V110.13h28.72v4.64q10-1.62,19.94-3.13a130,130,0,0,1,20.18-2q15.67,0,15.68,15.43Z" transform="translate(-3.64 -62.36)"/><path class="cls-3" d="M989.59,221.11q0,15.67-15.92,15.67H922.26q-16.18,0-16.18-15.67v-95.3q0-15.68,16.18-15.68h51.41q15.92,0,15.92,15.68ZM961.5,213V134.08H934.29V213Z" transform="translate(-3.64 -62.36)"/></svg>