<svg id="Layer_1" data-name="Layer 1" xmlns="http://www.w3.org/2000/svg" viewBox="0 0 985.96 220.69"><defs><style>.cls-1{fill:#209cee;}.cls-2{fill:#2b2523;}</style></defs><path class="cls-1" d="M65,237.3H33.1q-15.92,0-15.92-15.67V135.11H3.64V110.65H17.18V76.3H45.77v34.35H64.2v24.46H45.77v77.74H65Z" transform="translate(-3.64 -62.88)"/><path class="cls-2" d="M162.76,221.63q0,15.68-16.18,15.67H97.05q-16.17,0-16.17-15.67v-95.3q0-15.67,16.17-15.68h49.53q16.18,0,16.18,15.68v46.52l-7.9,7.9H108.34v35.48h27V195.17h27.46ZM135.3,162.06V131.72h-27v30.34Z" transform="translate(-3.64 -62.88)"/><path class="cls-2" d="M212.79,92.47H184.08V62.88h28.71Zm-.25,144.83H184.33V110.65h28.21Z" transform="translate(-3.64 -62.88)"/><path class="cls-2" d="M318.37,237.3H289.53V134.6l-27,.51V237.3H233.86V110.65h28.71v4.64q10-1.62,19.94-3.13a130,130,0,0,1,20.19-2q15.66,0,15.67,15.43Z" transform="translate(-3.64 -62.88)"/><path class="cls-2" d="M420.82,221.63q0,15.68-16.18,15.67H355.11q-16.17,0-16.18-15.67v-95.3q0-15.67,16.18-15.68h49.53q16.17,0,16.18,15.68v46.52l-7.9,7.9H366.4v35.48h27V195.17h27.47Zm-27.47-59.57V131.72h-27v30.34Z" transform="translate(-3.64 -62.88)"/><path class="cls-2" d="M523.26,237.3H495.8v-4.39l-19.56,3a145.94,145.94,0,0,1-19.44,1.88q-15.68,0-15.67-15.42V176.74q0-15.68,16.17-15.68h38.75V132H468.59V150h-26v-23.7q0-15.67,16.18-15.68h48.53q15.92,0,15.92,15.68Zm-27.21-22.82v-34H468.59v35Z" transform="translate(-3.64 -62.88)"/><path class="cls-2" d="M627.84,267.9q0,15.66-16.18,15.67h-49.9q-16.18,0-16.18-15.67V247.58h27.71v15.17h26v-26.2H569.78q-12,0-19.12-6.77t-7.09-18.69V133.6q0-10.9,6.15-17.18t16.93-6.27q5.39,0,32.6,5.14v-4.64h28.59Zm-28.59-54.42V135.61q-14.43-1.52-17.93-1.51-9.29,0-9.28,9.16V204q0,9.53,9.53,9.53Z" transform="translate(-3.64 -62.88)"/><path class="cls-2" d="M733.17,237.3H704.33V134.6l-27,.51V237.3H648.65V110.65h28.72v4.64q10-1.62,19.93-3.13a130.19,130.19,0,0,1,20.19-2q15.68,0,15.68,15.43Z" transform="translate(-3.64 -62.88)"/><path class="cls-1" d="M781.19,237.3H753V207h28.21Z" transform="translate(-3.64 -62.88)"/><path class="cls-2" d="M885.52,237.3H856.68V134.6l-27,.51V237.3H801V110.65h28.72v4.64q10-1.62,19.94-3.13a130,130,0,0,1,20.18-2q15.67,0,15.68,15.43Z" transform="translate(-3.64 -62.88)"/><path class="cls-2" d="M989.59,221.63q0,15.68-15.92,15.67H922.26q-16.18,0-16.18-15.67v-95.3q0-15.67,16.18-15.68h51.41q15.92,0,15.92,15.68Zm-28.09-8.15V134.6H934.29v78.88Z" transform="translate(-3.64 -62.88)"/></svg>