<svg id="Layer_1" data-name="Layer 1" xmlns="http://www.w3.org/2000/svg" viewBox="0 0 985.96 220.69"><defs><style>.cls-1{fill:#2e3192;}</style></defs><path class="cls-1" d="M65,237.66H33.1q-15.92,0-15.92-15.67V135.47H3.64V111H17.18V76.66H45.77V111H64.2v24.45H45.77v77.74H65Z" transform="translate(-3.64 -63.24)"/><path d="M162.76,222q0,15.67-16.18,15.67H97.05q-16.17,0-16.17-15.67v-95.3Q80.88,111,97.05,111h49.53q16.18,0,16.18,15.67v46.52l-7.9,7.9H108.34V216.6h27V195.53h27.46ZM135.3,162.43V132.08h-27v30.35Z" transform="translate(-3.64 -63.24)"/><path d="M212.79,92.83H184.07V63.24h28.72Zm-.25,144.83H184.33V111h28.21Z" transform="translate(-3.64 -63.24)"/><path d="M318.37,237.66H289.53V135l-27,.5V237.66H233.86V111h28.71v4.64q10-1.64,19.94-3.14a131.22,131.22,0,0,1,20.19-2q15.66,0,15.67,15.43Z" transform="translate(-3.64 -63.24)"/><path d="M420.81,222q0,15.67-16.17,15.67H355.11q-16.17,0-16.18-15.67v-95.3q0-15.68,16.18-15.67h49.53q16.17,0,16.17,15.67v46.52l-7.9,7.9H366.39V216.6h27V195.53h27.46Zm-27.46-59.56V132.08h-27v30.35Z" transform="translate(-3.64 -63.24)"/><path d="M523.26,237.66H495.8v-4.39l-19.56,3a144.25,144.25,0,0,1-19.44,1.88q-15.68,0-15.67-15.42V177.1q0-15.67,16.17-15.68h38.75V132.33H468.59v18.06h-26v-23.7q0-15.68,16.18-15.67h48.52q15.93,0,15.93,15.67Zm-27.21-22.82v-34H468.59v35Z" transform="translate(-3.64 -63.24)"/><path d="M627.84,268.26q0,15.67-16.18,15.67H561.75q-16.17,0-16.17-15.67V247.94h27.71v15.18h26V236.91H569.78q-12,0-19.12-6.77t-7.09-18.68V134q0-10.91,6.15-17.18t16.93-6.27q5.39,0,32.6,5.15V111h28.59Zm-28.59-54.42V136q-14.43-1.5-17.93-1.51-9.29,0-9.28,9.16v60.69q0,9.52,9.53,9.53Z" transform="translate(-3.64 -63.24)"/><path d="M733.17,237.66H704.33V135l-27,.5V237.66H648.65V111h28.72v4.64q10-1.64,19.93-3.14a131.33,131.33,0,0,1,20.19-2q15.68,0,15.68,15.43Z" transform="translate(-3.64 -63.24)"/><path class="cls-1" d="M781.19,237.66H753V207.32h28.21Z" transform="translate(-3.64 -63.24)"/><path d="M885.52,237.66H856.68V135l-27,.5V237.66H801V111h28.72v4.64q10-1.64,19.94-3.14a131.22,131.22,0,0,1,20.18-2q15.67,0,15.68,15.43Z" transform="translate(-3.64 -63.24)"/><path d="M989.59,222q0,15.67-15.92,15.67H922.26q-16.18,0-16.18-15.67v-95.3q0-15.68,16.18-15.67h51.41q15.92,0,15.92,15.67Zm-28.09-8.15V135H934.29v78.87Z" transform="translate(-3.64 -63.24)"/></svg>